# xmcd
#
# Track frame offsets:
#	150
#	21937
#	38571
#	56608
#	75444
#	97107
#	121304
#	137407
#	152717
#	165713
#	179334
#	201364
#	210814
#	224862
#	244163
#	263162
#	279408
#	292868
#	309819
#	332885
#
# Disc length: 4583 seconds
#
# Revision: 1
# Processed by: cddbd v1.5.1PL2 Copyright (c) Steve Scherf et al.
# Submitted via: audiograbber 1.83.01
#
DISCID=1a11e514
DTITLE=Various Artist - Just The Way You Are CD1
DYEAR=2005
DGENRE=Ballad
TTITLE0=Barry White - Just The Way You Are
TTITLE1=Diana Ross - I'm Still Waiting
TTITLE2=The Jackson 5 - I'll Be There
TTITLE3=Smokey Robinson - Being With You
TTITLE4=Al Green - Let's Stay Together
TTITLE5=Rose Royce - Wishing On A Star
TTITLE6=Lou Rawls - You'll Never Find Another Love Like Mine
TTITLE7=The O'Jays - Use' Ta Be My Girl
TTITLE8=The Chi - Lites - Have You Seen Her
TTITLE9=Jackie Wilson - (Your Love Keeps Lifting Me) Higher And Higher
TTITLE10=Teddy Pendergrass - Love T. K. O.
TTITLE11=Al Jarreau - Ain't No Sunshine
TTITLE12=Joolz Gianni and Dina Carroll - Almaz
TTITLE13=Shalamar - I Can Make You Feel Good
TTITLE14=Phyllis Nelson - Move Closer
TTITLE15=Dorothy Moore - Misty Blue
TTITLE16=Junior Walker - How Sweet It Is (To Be Loved By You)
TTITLE17=Brook Benton - Rainy Night In Georgia
TTITLE18=Heatwave - Always And Forever
TTITLE19=Ray Charles - Sentimental Blues
EXTD=
EXTT0=
EXTT1=
EXTT2=
EXTT3=
EXTT4=
EXTT5=
EXTT6=
EXTT7=
EXTT8=
EXTT9=
EXTT10=
EXTT11=
EXTT12=
EXTT13=
EXTT14=
EXTT15=
EXTT16=
EXTT17=
EXTT18=
EXTT19=
PLAYORDER=
